<mxfile host="Electron" modified="2024-03-10T18:19:35.963Z" agent="Mozilla/5.0 (Windows NT 10.0; Win64; x64) AppleWebKit/537.36 (KHTML, like Gecko) draw.io/22.1.16 Chrome/120.0.6099.109 Electron/28.1.0 Safari/537.36" etag="3yMpvydLeAF5eAWgK8UW" version="22.1.16" type="device">
  <diagram id="9ldKTxmY-Ua51N416hgn" name="Page-1">
    <mxGraphModel dx="1084" dy="1184" grid="1" gridSize="10" guides="1" tooltips="1" connect="1" arrows="1" fold="1" page="1" pageScale="1" pageWidth="850" pageHeight="1100" math="0" shadow="0">
      <root>
        <mxCell id="0" />
        <mxCell id="1" parent="0" />
        <mxCell id="aFY7QPtMBsY-HTIfKVIK-1" value="My Application" style="rounded=0;whiteSpace=wrap;html=1;verticalAlign=bottom;fontSize=20;fontStyle=3" vertex="1" parent="1">
          <mxGeometry x="156.5" y="90" width="309" height="310" as="geometry" />
        </mxCell>
        <mxCell id="1kCPxxEV0PyBV-y33uGy-1" value="Client" style="rounded=0;whiteSpace=wrap;html=1;fillColor=#d5e8d4;strokeColor=#82b366;" parent="1" vertex="1">
          <mxGeometry x="190" y="150" width="60" height="210" as="geometry" />
        </mxCell>
        <mxCell id="1kCPxxEV0PyBV-y33uGy-2" value="Server" style="rounded=0;whiteSpace=wrap;html=1;fillColor=#dae8fc;strokeColor=#6c8ebf;" parent="1" vertex="1">
          <mxGeometry x="375" y="150" width="65" height="210" as="geometry" />
        </mxCell>
        <mxCell id="1kCPxxEV0PyBV-y33uGy-4" value="" style="endArrow=classic;html=1;rounded=0;exitX=1.017;exitY=0.108;exitDx=0;exitDy=0;exitPerimeter=0;entryX=-0.018;entryY=0.107;entryDx=0;entryDy=0;entryPerimeter=0;" parent="1" source="1kCPxxEV0PyBV-y33uGy-1" target="1kCPxxEV0PyBV-y33uGy-2" edge="1">
          <mxGeometry width="50" height="50" relative="1" as="geometry">
            <mxPoint x="240.41999999999996" y="171.93000000000006" as="sourcePoint" />
            <mxPoint x="375" y="171.93000000000006" as="targetPoint" />
          </mxGeometry>
        </mxCell>
        <mxCell id="1kCPxxEV0PyBV-y33uGy-8" value="Initial request" style="edgeLabel;html=1;align=center;verticalAlign=bottom;resizable=0;points=[];" parent="1kCPxxEV0PyBV-y33uGy-4" vertex="1" connectable="0">
          <mxGeometry x="0.1603" relative="1" as="geometry">
            <mxPoint x="-9" as="offset" />
          </mxGeometry>
        </mxCell>
        <mxCell id="1kCPxxEV0PyBV-y33uGy-5" value="" style="endArrow=classic;html=1;rounded=0;entryX=1.014;entryY=0.342;entryDx=0;entryDy=0;entryPerimeter=0;exitX=0.001;exitY=0.341;exitDx=0;exitDy=0;exitPerimeter=0;verticalAlign=middle;" parent="1" source="1kCPxxEV0PyBV-y33uGy-2" target="1kCPxxEV0PyBV-y33uGy-1" edge="1">
          <mxGeometry width="50" height="50" relative="1" as="geometry">
            <mxPoint x="241.32500000000005" y="250.6600000000002" as="sourcePoint" />
            <mxPoint x="375.725" y="250.6600000000002" as="targetPoint" />
          </mxGeometry>
        </mxCell>
        <mxCell id="1kCPxxEV0PyBV-y33uGy-9" value="HTML" style="edgeLabel;html=1;align=center;verticalAlign=bottom;resizable=0;points=[];" parent="1kCPxxEV0PyBV-y33uGy-5" vertex="1" connectable="0">
          <mxGeometry x="0.1076" y="-1" relative="1" as="geometry">
            <mxPoint x="9" as="offset" />
          </mxGeometry>
        </mxCell>
        <mxCell id="1kCPxxEV0PyBV-y33uGy-6" value="" style="endArrow=classic;html=1;rounded=0;exitX=0.993;exitY=0.605;exitDx=0;exitDy=0;exitPerimeter=0;entryX=0.018;entryY=0.608;entryDx=0;entryDy=0;entryPerimeter=0;verticalAlign=bottom;" parent="1" source="1kCPxxEV0PyBV-y33uGy-1" target="1kCPxxEV0PyBV-y33uGy-2" edge="1">
          <mxGeometry width="50" height="50" relative="1" as="geometry">
            <mxPoint x="241.68000000000006" y="277.49" as="sourcePoint" />
            <mxPoint x="373.115" y="277.90999999999997" as="targetPoint" />
          </mxGeometry>
        </mxCell>
        <mxCell id="1kCPxxEV0PyBV-y33uGy-10" value="Form POST" style="edgeLabel;html=1;align=center;verticalAlign=bottom;resizable=0;points=[];" parent="1kCPxxEV0PyBV-y33uGy-6" vertex="1" connectable="0">
          <mxGeometry x="-0.1455" relative="1" as="geometry">
            <mxPoint x="13" as="offset" />
          </mxGeometry>
        </mxCell>
        <mxCell id="1kCPxxEV0PyBV-y33uGy-7" value="HTML" style="endArrow=classic;html=1;rounded=0;exitX=0.009;exitY=0.869;exitDx=0;exitDy=0;exitPerimeter=0;verticalAlign=bottom;entryX=0.988;entryY=0.868;entryDx=0;entryDy=0;entryPerimeter=0;" parent="1" source="1kCPxxEV0PyBV-y33uGy-2" target="1kCPxxEV0PyBV-y33uGy-1" edge="1">
          <mxGeometry width="50" height="50" relative="1" as="geometry">
            <mxPoint x="375.32499999999993" y="332.72" as="sourcePoint" />
            <mxPoint x="240" y="330" as="targetPoint" />
          </mxGeometry>
        </mxCell>
        <mxCell id="1kCPxxEV0PyBV-y33uGy-12" value="Traditional Page Lifecycle (SSR)" style="text;html=1;strokeColor=none;fillColor=none;align=center;verticalAlign=middle;whiteSpace=wrap;rounded=0;fontStyle=1;fontSize=18;" parent="1" vertex="1">
          <mxGeometry x="171" y="100" width="280" height="30" as="geometry" />
        </mxCell>
        <mxCell id="1kCPxxEV0PyBV-y33uGy-15" value="" style="dashed=0;outlineConnect=0;html=1;align=center;labelPosition=center;verticalLabelPosition=bottom;verticalAlign=top;shape=mxgraph.weblogos.html5;fontSize=18;" parent="1" vertex="1">
          <mxGeometry x="268" y="198" width="21.24" height="30" as="geometry" />
        </mxCell>
        <mxCell id="1kCPxxEV0PyBV-y33uGy-18" value="" style="dashed=0;outlineConnect=0;html=1;align=center;labelPosition=center;verticalLabelPosition=bottom;verticalAlign=top;shape=mxgraph.weblogos.html5;fontSize=18;" parent="1" vertex="1">
          <mxGeometry x="340" y="310" width="21.24" height="30" as="geometry" />
        </mxCell>
        <mxCell id="1kCPxxEV0PyBV-y33uGy-20" value="Client (Frontend Application)" style="rounded=0;whiteSpace=wrap;html=1;fillColor=#d5e8d4;strokeColor=#82b366;" parent="1" vertex="1">
          <mxGeometry x="550" y="150" width="80" height="210" as="geometry" />
        </mxCell>
        <mxCell id="1kCPxxEV0PyBV-y33uGy-21" value="Server&lt;br&gt;(Backend Application)" style="rounded=0;whiteSpace=wrap;html=1;fillColor=#dae8fc;strokeColor=#6c8ebf;" parent="1" vertex="1">
          <mxGeometry x="755" y="150" width="85" height="210" as="geometry" />
        </mxCell>
        <mxCell id="1kCPxxEV0PyBV-y33uGy-22" value="" style="endArrow=classic;html=1;rounded=0;exitX=1.017;exitY=0.108;exitDx=0;exitDy=0;exitPerimeter=0;entryX=-0.018;entryY=0.107;entryDx=0;entryDy=0;entryPerimeter=0;" parent="1" source="1kCPxxEV0PyBV-y33uGy-20" target="1kCPxxEV0PyBV-y33uGy-21" edge="1">
          <mxGeometry width="50" height="50" relative="1" as="geometry">
            <mxPoint x="620.42" y="171.93000000000006" as="sourcePoint" />
            <mxPoint x="755" y="171.93000000000006" as="targetPoint" />
          </mxGeometry>
        </mxCell>
        <mxCell id="1kCPxxEV0PyBV-y33uGy-23" value="Initial request" style="edgeLabel;html=1;align=center;verticalAlign=bottom;resizable=0;points=[];" parent="1kCPxxEV0PyBV-y33uGy-22" vertex="1" connectable="0">
          <mxGeometry x="0.1603" relative="1" as="geometry">
            <mxPoint x="-9" as="offset" />
          </mxGeometry>
        </mxCell>
        <mxCell id="1kCPxxEV0PyBV-y33uGy-24" value="" style="endArrow=classic;html=1;rounded=0;entryX=1.014;entryY=0.342;entryDx=0;entryDy=0;entryPerimeter=0;exitX=0.001;exitY=0.341;exitDx=0;exitDy=0;exitPerimeter=0;verticalAlign=middle;" parent="1" source="1kCPxxEV0PyBV-y33uGy-21" target="1kCPxxEV0PyBV-y33uGy-20" edge="1">
          <mxGeometry width="50" height="50" relative="1" as="geometry">
            <mxPoint x="621.325" y="250.6600000000002" as="sourcePoint" />
            <mxPoint x="755.725" y="250.6600000000002" as="targetPoint" />
          </mxGeometry>
        </mxCell>
        <mxCell id="1kCPxxEV0PyBV-y33uGy-25" value="HTML" style="edgeLabel;html=1;align=center;verticalAlign=bottom;resizable=0;points=[];" parent="1kCPxxEV0PyBV-y33uGy-24" vertex="1" connectable="0">
          <mxGeometry x="0.1076" y="-1" relative="1" as="geometry">
            <mxPoint x="9" as="offset" />
          </mxGeometry>
        </mxCell>
        <mxCell id="1kCPxxEV0PyBV-y33uGy-26" value="" style="endArrow=classic;html=1;rounded=0;exitX=0.993;exitY=0.605;exitDx=0;exitDy=0;exitPerimeter=0;entryX=0.018;entryY=0.608;entryDx=0;entryDy=0;entryPerimeter=0;verticalAlign=bottom;" parent="1" source="1kCPxxEV0PyBV-y33uGy-20" target="1kCPxxEV0PyBV-y33uGy-21" edge="1">
          <mxGeometry width="50" height="50" relative="1" as="geometry">
            <mxPoint x="621.6800000000001" y="277.49" as="sourcePoint" />
            <mxPoint x="753.115" y="277.90999999999997" as="targetPoint" />
          </mxGeometry>
        </mxCell>
        <mxCell id="1kCPxxEV0PyBV-y33uGy-27" value="Ajax" style="edgeLabel;html=1;align=center;verticalAlign=bottom;resizable=0;points=[];" parent="1kCPxxEV0PyBV-y33uGy-26" vertex="1" connectable="0">
          <mxGeometry x="-0.1455" relative="1" as="geometry">
            <mxPoint x="13" as="offset" />
          </mxGeometry>
        </mxCell>
        <mxCell id="1kCPxxEV0PyBV-y33uGy-28" value="" style="endArrow=classic;html=1;rounded=0;exitX=0.009;exitY=0.869;exitDx=0;exitDy=0;exitPerimeter=0;verticalAlign=bottom;entryX=0.988;entryY=0.868;entryDx=0;entryDy=0;entryPerimeter=0;" parent="1" source="1kCPxxEV0PyBV-y33uGy-21" target="1kCPxxEV0PyBV-y33uGy-20" edge="1">
          <mxGeometry x="-0.1195" y="-12" width="50" height="50" relative="1" as="geometry">
            <mxPoint x="755.3249999999999" y="332.72" as="sourcePoint" />
            <mxPoint x="620" y="330" as="targetPoint" />
            <mxPoint as="offset" />
          </mxGeometry>
        </mxCell>
        <mxCell id="1kCPxxEV0PyBV-y33uGy-29" value="SPA Lifecycle" style="text;html=1;strokeColor=none;fillColor=none;align=center;verticalAlign=middle;whiteSpace=wrap;rounded=0;fontStyle=1;fontSize=18;" parent="1" vertex="1">
          <mxGeometry x="570" y="100" width="240" height="30" as="geometry" />
        </mxCell>
        <mxCell id="1kCPxxEV0PyBV-y33uGy-30" value="" style="dashed=0;outlineConnect=0;html=1;align=center;labelPosition=center;verticalLabelPosition=bottom;verticalAlign=top;shape=mxgraph.weblogos.html5;fontSize=18;" parent="1" vertex="1">
          <mxGeometry x="648" y="198" width="21.24" height="30" as="geometry" />
        </mxCell>
        <mxCell id="1kCPxxEV0PyBV-y33uGy-32" value="" style="dashed=0;outlineConnect=0;html=1;align=center;labelPosition=center;verticalLabelPosition=bottom;verticalAlign=top;shape=mxgraph.weblogos.json_2;fontSize=18;" parent="1" vertex="1">
          <mxGeometry x="669.24" y="310" width="63.81" height="20" as="geometry" />
        </mxCell>
      </root>
    </mxGraphModel>
  </diagram>
</mxfile>
